<svg width="88" height="70" viewBox="0 0 88 70" fill="none" xmlns="http://www.w3.org/2000/svg">
<path d="M87.5 33.9062L78.125 12.0312C77.8858 11.4664 77.4856 10.9845 76.9743 10.6455C76.4631 10.3065 75.8634 10.1255 75.25 10.125H65.875V3.875C65.875 3.0462 65.5458 2.25134 64.9597 1.66529C64.3737 1.07924 63.5788 0.75 62.75 0.75H3.375C2.5462 0.75 1.75134 1.07924 1.16529 1.66529C0.57924 2.25134 0.25 3.0462 0.25 3.875V57C0.25 57.8288 0.57924 58.6237 1.16529 59.2097C1.75134 59.7958 2.5462 60.125 3.375 60.125H10.0625C10.7821 62.773 12.3531 65.1107 14.5331 66.7773C16.7131 68.4439 19.3809 69.3469 22.125 69.3469C24.8691 69.3469 27.5369 68.4439 29.7169 66.7773C31.8969 65.1107 33.4679 62.773 34.1875 60.125H53.8125C54.5321 62.773 56.1031 65.1107 58.2831 66.7773C60.4631 68.4439 63.1309 69.3469 65.875 69.3469C68.6191 69.3469 71.2869 68.4439 73.4669 66.7773C75.6469 65.1107 77.2179 62.773 77.9375 60.125H84.625C85.4538 60.125 86.2487 59.7958 86.8347 59.2097C87.4208 58.6237 87.75 57.8288 87.75 57V35.125C87.7492 34.7061 87.6642 34.2916 87.5 33.9062ZM65.875 16.375H73.1875L79.875 32H65.875V16.375ZM22.125 63.25C20.8889 63.25 19.6805 62.8834 18.6527 62.1967C17.6249 61.5099 16.8238 60.5338 16.3508 59.3918C15.8777 58.2497 15.7539 56.9931 15.9951 55.7807C16.2362 54.5683 16.8315 53.4547 17.7056 52.5806C18.5797 51.7065 19.6933 51.1112 20.9057 50.8701C22.1181 50.6289 23.3747 50.7527 24.5168 51.2258C25.6588 51.6988 26.6349 52.4999 27.3217 53.5277C28.0084 54.5555 28.375 55.7639 28.375 57C28.375 58.6576 27.7165 60.2473 26.5444 61.4194C25.3723 62.5915 23.7826 63.25 22.125 63.25ZM53.8125 53.875H34.1875C33.4679 51.227 31.8969 48.8893 29.7169 47.2227C27.5369 45.5561 24.8691 44.6531 22.125 44.6531C19.3809 44.6531 16.7131 45.5561 14.5331 47.2227C12.3531 48.8893 10.7821 51.227 10.0625 53.875H6.5V7H59.625V46.25C58.202 47.0759 56.9561 48.1746 55.9586 49.4831C54.9612 50.7915 54.2319 52.284 53.8125 53.875ZM65.875 63.25C64.6389 63.25 63.4305 62.8834 62.4027 62.1967C61.3749 61.5099 60.5738 60.5338 60.1008 59.3918C59.6277 58.2497 59.5039 56.9931 59.7451 55.7807C59.9862 54.5683 60.5815 53.4547 61.4556 52.5806C62.3297 51.7065 63.4433 51.1112 64.6557 50.8701C65.8681 50.6289 67.1247 50.7527 68.2668 51.2258C69.4088 51.6988 70.3849 52.4999 71.0717 53.5277C71.7584 54.5555 72.125 55.7639 72.125 57C72.125 58.6576 71.4665 60.2473 70.2944 61.4194C69.1223 62.5915 67.5326 63.25 65.875 63.25ZM81.5 53.875H77.9375C77.2465 51.1985 75.6877 48.8266 73.5051 47.1303C71.3225 45.434 68.6392 44.509 65.875 44.5V38.25H81.5V53.875Z" fill="white"/>
</svg>
