<svg width="108" height="108" viewBox="0 0 108 108" fill="none" xmlns="http://www.w3.org/2000/svg">
<g filter="url(#filter0_d)">
<g clip-path="url(#clip0)">
<path fill-rule="evenodd" clip-rule="evenodd" d="M91.5 18.75H16.5C14.8424 18.75 13.2527 19.4085 12.0806 20.5806C10.9085 21.7527 10.25 23.3424 10.25 25V75C10.25 76.6576 10.9085 78.2473 12.0806 79.4194C13.2527 80.5915 14.8424 81.25 16.5 81.25H91.5C93.1576 81.25 94.7473 80.5915 95.9194 79.4194C97.0915 78.2473 97.75 76.6576 97.75 75V25C97.75 23.3424 97.0915 21.7527 95.9194 20.5806C94.7473 19.4085 93.1576 18.75 91.5 18.75ZM16.5 12.5C13.1848 12.5 10.0054 13.817 7.66117 16.1612C5.31696 18.5054 4 21.6848 4 25L4 75C4 78.3152 5.31696 81.4946 7.66117 83.8388C10.0054 86.183 13.1848 87.5 16.5 87.5H91.5C94.8152 87.5 97.9946 86.183 100.339 83.8388C102.683 81.4946 104 78.3152 104 75V25C104 21.6848 102.683 18.5054 100.339 16.1612C97.9946 13.817 94.8152 12.5 91.5 12.5H16.5Z" fill="white"/>
<path d="M72.75 34.375C72.75 33.5462 73.0792 32.7513 73.6653 32.1653C74.2513 31.5792 75.0462 31.25 75.875 31.25H88.375C89.2038 31.25 89.9987 31.5792 90.5847 32.1653C91.1708 32.7513 91.5 33.5462 91.5 34.375V40.625C91.5 41.4538 91.1708 42.2487 90.5847 42.8347C89.9987 43.4208 89.2038 43.75 88.375 43.75H75.875C75.0462 43.75 74.2513 43.4208 73.6653 42.8347C73.0792 42.2487 72.75 41.4538 72.75 40.625V34.375ZM10.25 56.25H97.75V68.75H10.25V56.25Z" fill="white"/>
<path d="M86.5 68.125H83.8438V59.375C83.8438 56.6133 81.6055 54.375 78.8438 54.375H69.1562C66.3945 54.375 64.1562 56.6133 64.1562 59.375V68.125H61.5C60.8086 68.125 60.25 68.6836 60.25 69.375V84.375C60.25 85.0664 60.8086 85.625 61.5 85.625H86.5C87.1914 85.625 87.75 85.0664 87.75 84.375V69.375C87.75 68.6836 87.1914 68.125 86.5 68.125ZM75.0938 77.3828V79.4531C75.0938 79.625 74.9531 79.7656 74.7812 79.7656H73.2188C73.0469 79.7656 72.9062 79.625 72.9062 79.4531V77.3828C72.5838 77.1513 72.3431 76.8235 72.2189 76.4465C72.0946 76.0695 72.0932 75.6628 72.2148 75.2849C72.3364 74.907 72.5747 74.5775 72.8955 74.3437C73.2163 74.11 73.6031 73.984 74 73.984C74.3969 73.984 74.7837 74.11 75.1045 74.3437C75.4253 74.5775 75.6636 74.907 75.7852 75.2849C75.9068 75.6628 75.9054 76.0695 75.7811 76.4465C75.6569 76.8235 75.4162 77.1513 75.0938 77.3828ZM81.0312 68.125H66.9688V59.375C66.9688 58.168 67.9492 57.1875 69.1562 57.1875H78.8438C80.0508 57.1875 81.0312 58.168 81.0312 59.375V68.125Z" fill="#F69225"/>
</g>
</g>
<defs>
<filter id="filter0_d" x="0" y="0" width="108" height="108" filterUnits="userSpaceOnUse" color-interpolation-filters="sRGB">
<feFlood flood-opacity="0" result="BackgroundImageFix"/>
<feColorMatrix in="SourceAlpha" type="matrix" values="0 0 0 0 0 0 0 0 0 0 0 0 0 0 0 0 0 0 127 0"/>
<feOffset dy="4"/>
<feGaussianBlur stdDeviation="2"/>
<feColorMatrix type="matrix" values="0 0 0 0 0 0 0 0 0 0 0 0 0 0 0 0 0 0 0.25 0"/>
<feBlend mode="normal" in2="BackgroundImageFix" result="effect1_dropShadow"/>
<feBlend mode="normal" in="SourceGraphic" in2="effect1_dropShadow" result="shape"/>
</filter>
<clipPath id="clip0">
<rect width="100" height="100" fill="white" transform="translate(4)"/>
</clipPath>
</defs>
</svg>
