<svg width="88" height="100" viewBox="0 0 88 100" fill="none" xmlns="http://www.w3.org/2000/svg">
<path d="M85.9026 68.8168L81.8459 59.6879C81.8596 59.6742 81.8741 59.6617 81.8877 59.648C83.6278 57.9104 84.586 55.5984 84.586 53.1379V43.7238C84.586 41.5965 83.837 38.9021 81.4397 36.7973C81.0909 16.4477 64.4313 0 44 0C23.5688 0 6.90922 16.4477 6.56039 36.7971C4.1643 38.902 3.41411 41.5955 3.41411 43.7238V53.1379C3.41411 55.5984 4.37231 57.9104 6.10961 59.6453C6.12407 59.66 6.1395 59.6732 6.15414 59.6877L2.0975 68.8164C-0.0399964 73.626 0.395746 79.1303 3.26274 83.54C6.13032 87.952 10.9832 90.5859 16.2442 90.5859H18.428L8.45317 94.3266C6.93813 94.8947 6.17036 96.5834 6.73871 98.0984C7.30707 99.6135 8.99614 100.381 10.5106 99.8129L33.8483 91.0611L41.9286 99.1412C43.0725 100.285 44.9276 100.285 46.0717 99.1412L54.152 91.0611L77.4897 99.8129C79.0042 100.381 80.693 99.6135 81.2616 98.0984C81.8297 96.5834 81.0622 94.8947 79.5471 94.3266L69.5721 90.5859H71.7559C77.0168 90.5859 81.8698 87.9521 84.737 83.5406C87.6043 79.1303 88.0401 73.6262 85.9026 68.8168ZM63.0366 57.8117L54.7247 53.6559C51.3665 51.9764 47.6838 51.1369 43.9998 51.1369C40.3168 51.1369 36.6329 51.9768 33.2756 53.6559L24.9633 57.8117V39.3797L33.6166 35.6709C38.0832 33.7572 41.6774 30.4828 43.9998 26.4523C46.3223 30.4828 49.9163 33.7572 54.3825 35.6707L63.0364 39.3797V57.8117H63.0366ZM78.7266 43.7238V53.1379C78.7266 54.0316 78.3788 54.8715 77.7444 55.5049C77.1137 56.1363 76.2741 56.4844 75.3803 56.4844H68.8959V40.3775H75.3803C77.2041 40.3775 78.7266 41.8523 78.7266 43.7238ZM75.5885 62.3367V65.69C75.5885 67.5352 74.0873 69.0365 72.2422 69.0365H67.711C68.4817 67.0062 68.8959 64.8172 68.8959 62.5521V62.3438H75.3803C75.45 62.3438 75.519 62.3383 75.5885 62.3367ZM44 5.85938C60.4307 5.85938 73.9694 18.4697 75.4516 34.5199C75.4278 34.5197 75.4041 34.5182 75.3801 34.5182H66.5674L56.6905 30.2848C50.7612 27.7447 46.9297 21.9342 46.9297 15.4818C46.9297 13.8639 45.618 12.5521 44 12.5521C42.3821 12.5521 41.0704 13.8639 41.0704 15.4818C41.0704 21.9342 37.2389 27.7447 31.3088 30.2852L21.4325 34.5184H12.62C12.5961 34.5184 12.5723 34.5199 12.5485 34.5201C14.0307 18.4697 27.5694 5.85938 44 5.85938ZM9.27348 43.7238C9.27348 41.8961 10.7514 40.3775 12.6198 40.3775H19.1041V56.4844H12.6198C11.7258 56.4844 10.8864 56.1365 10.2528 55.5023C9.62114 54.8717 9.27328 54.0318 9.27328 53.1381V43.7238H9.27348ZM31.6563 84.7266H16.2442C12.9745 84.7266 9.95805 83.0893 8.17543 80.3465C6.39379 77.6064 6.12329 74.1857 7.452 71.1959L11.4211 62.2643C11.8157 62.3152 12.2155 62.3438 12.62 62.3438H19.1043V62.552C19.1043 69.4756 22.951 75.7 29.1432 78.7963L31.6563 80.0527V84.7266ZM50.4844 86.442L44 92.9264L37.5157 86.442V82.4932C39.6321 83.0838 41.8157 83.3814 44.0002 83.3814C46.1842 83.3814 48.3682 83.0836 50.4846 82.4932V86.442H50.4844ZM52.1036 75.6219C47.0295 78.1598 40.9706 78.16 35.8961 75.6217L31.7635 73.5557C28.0983 71.7229 25.6463 68.2725 25.0862 64.3016L35.8967 58.8965C40.9707 56.3586 47.0297 56.3586 52.1041 58.8965L62.9143 64.3016C62.6739 66.0051 62.0832 67.6113 61.2002 69.0365H56.5524C54.9344 69.0365 53.6227 70.3482 53.6227 71.9662C53.6227 72.9133 54.0739 73.7527 54.7709 74.2883L52.1036 75.6219ZM79.8245 80.3469C78.042 83.0893 75.0256 84.7266 71.7559 84.7266H56.3438V80.0529L58.8571 78.7963C60.8577 77.7959 62.6118 76.4676 64.0721 74.8959H72.2422C75.6168 74.8959 78.5713 73.0695 80.1741 70.3545L80.5481 71.1963C81.8768 74.1857 81.6063 77.6064 79.8245 80.3469Z" fill="white"/>
<path d="M34.586 46.6537C36.204 46.6537 37.5157 45.3421 37.5157 43.7241C37.5157 42.106 36.204 40.7944 34.586 40.7944C32.968 40.7944 31.6563 42.106 31.6563 43.7241C31.6563 45.3421 32.968 46.6537 34.586 46.6537Z" fill="white"/>
<path d="M53.4141 46.6537C55.0321 46.6537 56.3438 45.3421 56.3438 43.7241C56.3438 42.106 55.0321 40.7944 53.4141 40.7944C51.7961 40.7944 50.4844 42.106 50.4844 43.7241C50.4844 45.3421 51.7961 46.6537 53.4141 46.6537Z" fill="white"/>
</svg>
