<svg width="690" height="607" viewBox="0 0 690 607" fill="none" xmlns="http://www.w3.org/2000/svg">
<rect x="5.94828" y="151.086" width="463.966" height="449.69" rx="29.7414" stroke="#FF5C28" stroke-width="11.8966"/>
<circle cx="60.6724" cy="197.483" r="11.8966" fill="#FF5C28"/>
<circle cx="96.3621" cy="197.483" r="11.8966" fill="#FF5C28"/>
<circle cx="132.052" cy="197.483" r="11.8966" fill="#FF5C28"/>
<line y1="243.879" x2="467.534" y2="243.879" stroke="#FF5C28" stroke-width="11.8966"/>
<rect x="308.121" y="459.714" width="39.2586" height="59.4828" rx="5.94828" stroke="#FF5C28" stroke-width="11.8966"/>
<line x1="139.19" y1="459.714" x2="353.328" y2="459.714" stroke="#FF5C28" stroke-width="11.8966"/>
<line x1="135.491" y1="391.949" x2="185.964" y2="341.476" stroke="#FF5C28" stroke-width="11.8966"/>
<line y1="-5.94828" x2="71.3793" y2="-5.94828" transform="matrix(-0.707107 -0.707107 -0.707107 0.707107 189.663 396.155)" stroke="#FF5C28" stroke-width="11.8966"/>
<line x1="300.678" y1="392.456" x2="351.151" y2="341.984" stroke="#FF5C28" stroke-width="11.8966"/>
<line y1="-5.94828" x2="71.3793" y2="-5.94828" transform="matrix(-0.707107 -0.707107 -0.707107 0.707107 354.849 396.662)" stroke="#FF5C28" stroke-width="11.8966"/>
<path fill-rule="evenodd" clip-rule="evenodd" d="M462.034 41.6606C449.667 16.9589 424.124 0 394.619 0C356.548 0 325.072 28.2372 319.991 64.9109C271.24 74.1004 234.362 116.909 234.362 168.33C234.362 226.454 281.481 273.573 339.606 273.573C346.555 273.573 353.348 272.9 359.921 271.614C386.134 333.048 447.089 376.107 518.101 376.107C613.038 376.107 690 299.146 690 204.208C690 109.271 613.038 32.3095 518.101 32.3095C498.47 32.3095 479.607 35.6004 462.034 41.6606Z" fill="#FF5C28"/>
</svg>
