  <svg width="551" height="110" viewBox="0 0 551 110" fill="none" xmlns="http://www.w3.org/2000/svg">
              <path d="M24 41C24 27.1929 35.1929 16 49 16C62.8071 16 74 27.1929 74 41C74 54.8071 62.8071 66 49 66C35.1929 66 24 54.8071 24 41Z" fill="#22D105"/>
              <path d="M55.0094 41.6612V43.073L43.8141 48.9177V46.433C43.8141 46.2447 43.8611 46.0706 43.9552 45.9106C44.0494 45.7506 44.2046 45.6189 44.4211 45.5153L49.5458 42.8753C49.9882 42.6589 50.4729 42.4894 50.9999 42.3671C50.4729 42.2447 49.9882 42.0753 49.5458 41.8589L44.4211 39.233C44.2046 39.12 44.0494 38.9883 43.9552 38.8377C43.8611 38.6777 43.8141 38.5036 43.8141 38.3153V35.8306L55.0094 41.6612Z" fill="#22D105"/>
              <path fill-rule="evenodd" clip-rule="evenodd" d="M38.3301 39L34 41.5L37.5 47.5622L39.5 51.0263L40 51.8923L63.3827 38.3923L60.8827 34.0622L41.8301 45.0622L38.3301 39Z" fill="white"/>
              <path d="M49 58.5172C39.3255 58.5172 31.4828 50.6745 31.4828 41H16.5172C16.5172 58.9397 31.0603 73.4828 49 73.4828V58.5172ZM66.5172 41C66.5172 50.6745 58.6745 58.5172 49 58.5172V73.4828C66.9397 73.4828 81.4828 58.9397 81.4828 41H66.5172ZM49 23.4828C58.6745 23.4828 66.5172 31.3255 66.5172 41H81.4828C81.4828 23.0603 66.9397 8.51724 49 8.51724V23.4828ZM49 8.51724C31.0603 8.51724 16.5172 23.0603 16.5172 41H31.4828C31.4828 31.3255 39.3255 23.4828 49 23.4828V8.51724Z" fill="#22D105"/>
              <path d="M7.992 92.568V94H1.416V82.512H3.12V92.568H7.992ZM13.6984 90.392C13.0637 90.4133 12.525 90.464 12.0824 90.544C11.6397 90.6187 11.2797 90.72 11.0024 90.848C10.725 90.976 10.525 91.128 10.4024 91.304C10.2797 91.4747 10.2184 91.6667 10.2184 91.88C10.2184 92.0827 10.2504 92.2587 10.3144 92.408C10.3837 92.552 10.4744 92.672 10.5864 92.768C10.7037 92.8587 10.8397 92.9253 10.9944 92.968C11.149 93.0107 11.317 93.032 11.4984 93.032C11.7384 93.032 11.957 93.008 12.1544 92.96C12.357 92.912 12.5464 92.8453 12.7224 92.76C12.8984 92.6693 13.0664 92.56 13.2264 92.432C13.3864 92.304 13.5437 92.1573 13.6984 91.992V90.392ZM9.12238 87.008C9.57571 86.576 10.0664 86.2533 10.5944 86.04C11.1277 85.8267 11.7117 85.72 12.3464 85.72C12.8104 85.72 13.221 85.7973 13.5784 85.952C13.9357 86.1013 14.237 86.312 14.4824 86.584C14.7277 86.856 14.9117 87.1813 15.0344 87.56C15.1624 87.9387 15.2264 88.3573 15.2264 88.816V94H14.5304C14.3757 94 14.2584 93.976 14.1784 93.928C14.0984 93.8747 14.0344 93.7787 13.9864 93.64L13.8184 92.928C13.6104 93.12 13.405 93.2907 13.2024 93.44C12.9997 93.584 12.7864 93.7093 12.5624 93.816C12.3437 93.9173 12.109 93.9947 11.8584 94.048C11.6077 94.1013 11.3304 94.128 11.0264 94.128C10.7064 94.128 10.405 94.0853 10.1224 94C9.84504 93.9093 9.60238 93.7733 9.39438 93.592C9.18638 93.4107 9.02104 93.184 8.89838 92.912C8.78104 92.64 8.72238 92.3227 8.72238 91.96C8.72238 91.64 8.80771 91.3333 8.97838 91.04C9.15438 90.7413 9.43704 90.4747 9.82638 90.24C10.221 90.0053 10.733 89.8133 11.3624 89.664C11.997 89.5147 12.7757 89.4293 13.6984 89.408V88.816C13.6984 88.2027 13.5677 87.744 13.3064 87.44C13.045 87.136 12.661 86.984 12.1544 86.984C11.813 86.984 11.525 87.0267 11.2904 87.112C11.061 87.1973 10.861 87.2933 10.6904 87.4C10.525 87.5013 10.3784 87.5947 10.2504 87.68C10.1277 87.7653 9.99971 87.808 9.86638 87.808C9.75971 87.808 9.66638 87.7787 9.58638 87.72C9.51171 87.6613 9.45038 87.592 9.40238 87.512L9.12238 87.008ZM18.8748 92C19.1308 92.336 19.4081 92.5707 19.7068 92.704C20.0054 92.8373 20.3308 92.904 20.6828 92.904C21.4081 92.904 21.9654 92.6453 22.3548 92.128C22.7494 91.6107 22.9468 90.8293 22.9468 89.784C22.9468 88.8187 22.7734 88.112 22.4268 87.664C22.0801 87.2107 21.5894 86.984 20.9548 86.984C20.5068 86.984 20.1174 87.0853 19.7868 87.288C19.4614 87.4907 19.1574 87.7787 18.8748 88.152V92ZM18.8748 86.992C19.2108 86.6187 19.5921 86.3173 20.0188 86.088C20.4454 85.8587 20.9308 85.744 21.4748 85.744C21.9494 85.744 22.3761 85.8373 22.7548 86.024C23.1388 86.2053 23.4641 86.4693 23.7308 86.816C23.9974 87.1573 24.2028 87.5733 24.3468 88.064C24.4908 88.5547 24.5628 89.1093 24.5628 89.728C24.5628 90.384 24.4801 90.9813 24.3148 91.52C24.1548 92.0587 23.9228 92.52 23.6188 92.904C23.3201 93.288 22.9548 93.5867 22.5228 93.8C22.0908 94.008 21.6054 94.112 21.0668 94.112C20.8054 94.112 20.5654 94.0853 20.3468 94.032C20.1281 93.984 19.9254 93.912 19.7388 93.816C19.5574 93.72 19.3894 93.6027 19.2348 93.464C19.0801 93.3253 18.9334 93.168 18.7948 92.992L18.7228 93.672C18.6801 93.8907 18.5468 94 18.3228 94H17.3148V82.192H18.8748V86.992ZM31.6831 89.032C31.6831 88.7227 31.6378 88.4373 31.5471 88.176C31.4618 87.9147 31.3338 87.688 31.1631 87.496C30.9925 87.304 30.7845 87.1547 30.5391 87.048C30.2938 86.9413 30.0111 86.888 29.6911 86.888C29.0351 86.888 28.5178 87.0773 28.1391 87.456C27.7658 87.8347 27.5285 88.36 27.4271 89.032H31.6831ZM32.9711 92.84C32.7791 93.064 32.5578 93.2587 32.3071 93.424C32.0565 93.584 31.7898 93.7147 31.5071 93.816C31.2245 93.9173 30.9311 93.992 30.6271 94.04C30.3285 94.088 30.0325 94.112 29.7391 94.112C29.1791 94.112 28.6591 94.0187 28.1791 93.832C27.7045 93.64 27.2911 93.3627 26.9391 93C26.5925 92.632 26.3205 92.1787 26.1231 91.64C25.9311 91.096 25.8351 90.472 25.8351 89.768C25.8351 89.2027 25.9231 88.6773 26.0991 88.192C26.2751 87.7013 26.5258 87.2747 26.8511 86.912C27.1818 86.5493 27.5845 86.264 28.0591 86.056C28.5338 85.848 29.0671 85.744 29.6591 85.744C30.1551 85.744 30.6111 85.8267 31.0271 85.992C31.4485 86.152 31.8111 86.3867 32.1151 86.696C32.4191 87.0053 32.6565 87.3867 32.8271 87.84C33.0031 88.2933 33.0911 88.8107 33.0911 89.392C33.0911 89.632 33.0645 89.7947 33.0111 89.88C32.9578 89.96 32.8591 90 32.7151 90H27.3871C27.4031 90.4853 27.4725 90.9093 27.5951 91.272C27.7178 91.6293 27.8858 91.928 28.0991 92.168C28.3178 92.408 28.5765 92.5867 28.8751 92.704C29.1738 92.8213 29.5071 92.88 29.8751 92.88C30.2218 92.88 30.5205 92.84 30.7711 92.76C31.0271 92.68 31.2458 92.5947 31.4271 92.504C31.6138 92.408 31.7685 92.32 31.8911 92.24C32.0191 92.16 32.1311 92.12 32.2271 92.12C32.3551 92.12 32.4538 92.168 32.5231 92.264L32.9711 92.84ZM36.3679 82.192V94H34.7999V82.192H36.3679ZM50.9869 91.536C51.0829 91.536 51.1655 91.5733 51.2349 91.648L51.9069 92.384C51.4375 92.9387 50.8642 93.368 50.1869 93.672C49.5149 93.976 48.7042 94.128 47.7549 94.128C46.9229 94.128 46.1682 93.984 45.4909 93.696C44.8189 93.408 44.2429 93.0053 43.7629 92.488C43.2882 91.9707 42.9202 91.352 42.6589 90.632C42.3975 89.912 42.2669 89.12 42.2669 88.256C42.2669 87.392 42.4029 86.6 42.6749 85.88C42.9522 85.16 43.3389 84.5413 43.8349 84.024C44.3309 83.5067 44.9229 83.104 45.6109 82.816C46.3042 82.528 47.0695 82.384 47.9069 82.384C48.7229 82.384 49.4482 82.5173 50.0829 82.784C50.7175 83.0507 51.2695 83.4053 51.7389 83.848L51.1789 84.64C51.1415 84.6987 51.0935 84.7467 51.0349 84.784C50.9815 84.8213 50.9095 84.84 50.8189 84.84C50.7175 84.84 50.5975 84.7893 50.4589 84.688C50.3255 84.5867 50.1469 84.4747 49.9229 84.352C49.7042 84.224 49.4322 84.1093 49.1069 84.008C48.7815 83.9067 48.3762 83.856 47.8909 83.856C47.3202 83.856 46.7975 83.9573 46.3229 84.16C45.8482 84.3573 45.4375 84.6453 45.0909 85.024C44.7495 85.3973 44.4829 85.8587 44.2909 86.408C44.1042 86.952 44.0109 87.568 44.0109 88.256C44.0109 88.9547 44.1095 89.576 44.3069 90.12C44.5042 90.664 44.7762 91.1253 45.1229 91.504C45.4695 91.8827 45.8775 92.1707 46.3469 92.368C46.8162 92.5653 47.3229 92.664 47.8669 92.664C48.1975 92.664 48.4935 92.6453 48.7549 92.608C49.0215 92.5653 49.2642 92.504 49.4829 92.424C49.7069 92.344 49.9175 92.2427 50.1149 92.12C50.3122 91.992 50.5069 91.84 50.6989 91.664C50.7415 91.6267 50.7869 91.5973 50.8349 91.576C50.8829 91.5493 50.9335 91.536 50.9869 91.536ZM54.7243 87.432C54.9856 86.8987 55.3003 86.48 55.6683 86.176C56.0363 85.872 56.4789 85.72 56.9963 85.72C57.1723 85.72 57.3376 85.7413 57.4923 85.784C57.6523 85.8213 57.7909 85.88 57.9083 85.96L57.8043 87.136C57.7669 87.28 57.6789 87.352 57.5403 87.352C57.4656 87.352 57.3536 87.3387 57.2043 87.312C57.0549 87.28 56.8949 87.264 56.7243 87.264C56.4736 87.264 56.2523 87.3013 56.0603 87.376C55.8683 87.4453 55.6949 87.552 55.5403 87.696C55.3909 87.8347 55.2576 88.008 55.1403 88.216C55.0229 88.4187 54.9136 88.6507 54.8123 88.912V94H53.2523V85.872H54.1483C54.3189 85.872 54.4336 85.904 54.4923 85.968C54.5563 86.0267 54.6016 86.1333 54.6283 86.288L54.7243 87.432ZM64.1988 89.032C64.1988 88.7227 64.1534 88.4373 64.0628 88.176C63.9774 87.9147 63.8494 87.688 63.6788 87.496C63.5081 87.304 63.3001 87.1547 63.0548 87.048C62.8094 86.9413 62.5268 86.888 62.2068 86.888C61.5508 86.888 61.0334 87.0773 60.6548 87.456C60.2814 87.8347 60.0441 88.36 59.9428 89.032H64.1988ZM65.4868 92.84C65.2948 93.064 65.0734 93.2587 64.8228 93.424C64.5721 93.584 64.3054 93.7147 64.0228 93.816C63.7401 93.9173 63.4468 93.992 63.1428 94.04C62.8441 94.088 62.5481 94.112 62.2548 94.112C61.6948 94.112 61.1748 94.0187 60.6948 93.832C60.2201 93.64 59.8068 93.3627 59.4548 93C59.1081 92.632 58.8361 92.1787 58.6388 91.64C58.4468 91.096 58.3508 90.472 58.3508 89.768C58.3508 89.2027 58.4388 88.6773 58.6148 88.192C58.7908 87.7013 59.0414 87.2747 59.3668 86.912C59.6974 86.5493 60.1001 86.264 60.5748 86.056C61.0494 85.848 61.5828 85.744 62.1748 85.744C62.6708 85.744 63.1268 85.8267 63.5428 85.992C63.9641 86.152 64.3268 86.3867 64.6308 86.696C64.9348 87.0053 65.1721 87.3867 65.3428 87.84C65.5188 88.2933 65.6068 88.8107 65.6068 89.392C65.6068 89.632 65.5801 89.7947 65.5268 89.88C65.4734 89.96 65.3748 90 65.2308 90H59.9028C59.9188 90.4853 59.9881 90.9093 60.1108 91.272C60.2334 91.6293 60.4014 91.928 60.6148 92.168C60.8334 92.408 61.0921 92.5867 61.3908 92.704C61.6894 92.8213 62.0228 92.88 62.3908 92.88C62.7374 92.88 63.0361 92.84 63.2868 92.76C63.5428 92.68 63.7614 92.5947 63.9428 92.504C64.1294 92.408 64.2841 92.32 64.4068 92.24C64.5348 92.16 64.6468 92.12 64.7428 92.12C64.8708 92.12 64.9694 92.168 65.0388 92.264L65.4868 92.84ZM71.6515 90.392C71.0168 90.4133 70.4782 90.464 70.0355 90.544C69.5928 90.6187 69.2328 90.72 68.9555 90.848C68.6782 90.976 68.4782 91.128 68.3555 91.304C68.2328 91.4747 68.1715 91.6667 68.1715 91.88C68.1715 92.0827 68.2035 92.2587 68.2675 92.408C68.3368 92.552 68.4275 92.672 68.5395 92.768C68.6568 92.8587 68.7928 92.9253 68.9475 92.968C69.1022 93.0107 69.2702 93.032 69.4515 93.032C69.6915 93.032 69.9102 93.008 70.1075 92.96C70.3102 92.912 70.4995 92.8453 70.6755 92.76C70.8515 92.6693 71.0195 92.56 71.1795 92.432C71.3395 92.304 71.4968 92.1573 71.6515 91.992V90.392ZM67.0755 87.008C67.5288 86.576 68.0195 86.2533 68.5475 86.04C69.0808 85.8267 69.6648 85.72 70.2995 85.72C70.7635 85.72 71.1742 85.7973 71.5315 85.952C71.8888 86.1013 72.1902 86.312 72.4355 86.584C72.6808 86.856 72.8648 87.1813 72.9875 87.56C73.1155 87.9387 73.1795 88.3573 73.1795 88.816V94H72.4835C72.3288 94 72.2115 93.976 72.1315 93.928C72.0515 93.8747 71.9875 93.7787 71.9395 93.64L71.7715 92.928C71.5635 93.12 71.3582 93.2907 71.1555 93.44C70.9528 93.584 70.7395 93.7093 70.5155 93.816C70.2968 93.9173 70.0622 93.9947 69.8115 94.048C69.5608 94.1013 69.2835 94.128 68.9795 94.128C68.6595 94.128 68.3582 94.0853 68.0755 94C67.7982 93.9093 67.5555 93.7733 67.3475 93.592C67.1395 93.4107 66.9742 93.184 66.8515 92.912C66.7342 92.64 66.6755 92.3227 66.6755 91.96C66.6755 91.64 66.7608 91.3333 66.9315 91.04C67.1075 90.7413 67.3902 90.4747 67.7795 90.24C68.1742 90.0053 68.6862 89.8133 69.3155 89.664C69.9502 89.5147 70.7288 89.4293 71.6515 89.408V88.816C71.6515 88.2027 71.5208 87.744 71.2595 87.44C70.9982 87.136 70.6142 86.984 70.1075 86.984C69.7662 86.984 69.4782 87.0267 69.2435 87.112C69.0142 87.1973 68.8142 87.2933 68.6435 87.4C68.4782 87.5013 68.3315 87.5947 68.2035 87.68C68.0808 87.7653 67.9528 87.808 67.8195 87.808C67.7128 87.808 67.6195 87.7787 67.5395 87.72C67.4648 87.6613 67.4035 87.592 67.3555 87.512L67.0755 87.008ZM77.7025 94.128C77.0465 94.128 76.5398 93.944 76.1825 93.576C75.8305 93.208 75.6545 92.6827 75.6545 92V87.136H74.7105C74.6198 87.136 74.5425 87.1093 74.4785 87.056C74.4198 86.9973 74.3905 86.912 74.3905 86.8V86.168L75.7105 85.984L76.0625 83.56C76.0838 83.4693 76.1238 83.4 76.1825 83.352C76.2465 83.2987 76.3265 83.272 76.4225 83.272H77.2145V86H79.5185V87.136H77.2145V91.896C77.2145 92.216 77.2918 92.456 77.4465 92.616C77.6065 92.7707 77.8092 92.848 78.0545 92.848C78.1985 92.848 78.3212 92.8293 78.4225 92.792C78.5292 92.7547 78.6198 92.7147 78.6945 92.672C78.7692 92.624 78.8332 92.5813 78.8865 92.544C78.9398 92.5067 78.9878 92.488 79.0305 92.488C79.0838 92.488 79.1238 92.5013 79.1505 92.528C79.1825 92.5493 79.2145 92.5867 79.2465 92.64L79.7105 93.392C79.4545 93.6267 79.1505 93.808 78.7985 93.936C78.4465 94.064 78.0812 94.128 77.7025 94.128ZM86.2925 89.032C86.2925 88.7227 86.2472 88.4373 86.1565 88.176C86.0712 87.9147 85.9432 87.688 85.7725 87.496C85.6018 87.304 85.3938 87.1547 85.1485 87.048C84.9032 86.9413 84.6205 86.888 84.3005 86.888C83.6445 86.888 83.1272 87.0773 82.7485 87.456C82.3752 87.8347 82.1378 88.36 82.0365 89.032H86.2925ZM87.5805 92.84C87.3885 93.064 87.1672 93.2587 86.9165 93.424C86.6658 93.584 86.3992 93.7147 86.1165 93.816C85.8338 93.9173 85.5405 93.992 85.2365 94.04C84.9378 94.088 84.6418 94.112 84.3485 94.112C83.7885 94.112 83.2685 94.0187 82.7885 93.832C82.3138 93.64 81.9005 93.3627 81.5485 93C81.2018 92.632 80.9298 92.1787 80.7325 91.64C80.5405 91.096 80.4445 90.472 80.4445 89.768C80.4445 89.2027 80.5325 88.6773 80.7085 88.192C80.8845 87.7013 81.1352 87.2747 81.4605 86.912C81.7912 86.5493 82.1938 86.264 82.6685 86.056C83.1432 85.848 83.6765 85.744 84.2685 85.744C84.7645 85.744 85.2205 85.8267 85.6365 85.992C86.0578 86.152 86.4205 86.3867 86.7245 86.696C87.0285 87.0053 87.2658 87.3867 87.4365 87.84C87.6125 88.2933 87.7005 88.8107 87.7005 89.392C87.7005 89.632 87.6738 89.7947 87.6205 89.88C87.5672 89.96 87.4685 90 87.3245 90H81.9965C82.0125 90.4853 82.0818 90.9093 82.2045 91.272C82.3272 91.6293 82.4952 91.928 82.7085 92.168C82.9272 92.408 83.1858 92.5867 83.4845 92.704C83.7832 92.8213 84.1165 92.88 84.4845 92.88C84.8312 92.88 85.1298 92.84 85.3805 92.76C85.6365 92.68 85.8552 92.5947 86.0365 92.504C86.2232 92.408 86.3778 92.32 86.5005 92.24C86.6285 92.16 86.7405 92.12 86.8365 92.12C86.9645 92.12 87.0632 92.168 87.1325 92.264L87.5805 92.84ZM94.6173 87.84C94.3613 87.504 94.0839 87.2693 93.7853 87.136C93.4919 87.0027 93.1613 86.936 92.7933 86.936C92.0786 86.936 91.5239 87.1947 91.1293 87.712C90.7399 88.224 90.5453 88.9733 90.5453 89.96C90.5453 90.4773 90.5879 90.92 90.6733 91.288C90.7639 91.6507 90.8919 91.9493 91.0573 92.184C91.2279 92.4133 91.4359 92.584 91.6813 92.696C91.9266 92.8027 92.2039 92.856 92.5133 92.856C92.9666 92.856 93.3586 92.7547 93.6893 92.552C94.0199 92.3493 94.3293 92.064 94.6173 91.696V87.84ZM96.1853 82.192V94H95.2413C95.0226 94 94.8866 93.896 94.8333 93.688L94.6973 92.752C94.3506 93.1627 93.9559 93.4933 93.5133 93.744C93.0759 93.9893 92.5693 94.112 91.9933 94.112C91.5293 94.112 91.1079 94.0213 90.7293 93.84C90.3559 93.6587 90.0359 93.3947 89.7693 93.048C89.5026 92.696 89.2973 92.2613 89.1533 91.744C89.0093 91.2267 88.9373 90.632 88.9373 89.96C88.9373 89.3573 89.0173 88.7973 89.1773 88.28C89.3373 87.7627 89.5693 87.3147 89.8733 86.936C90.1773 86.5573 90.5453 86.2613 90.9773 86.048C91.4093 85.8293 91.8973 85.72 92.4413 85.72C92.9319 85.72 93.3479 85.8 93.6893 85.96C94.0359 86.12 94.3453 86.3467 94.6173 86.64V82.192H96.1853Z" fill="#181818"/>
              <rect x="181.741" y="19.7414" width="42.5172" height="42.5172" rx="21.2586" fill="white"/>
              <path d="M209.009 41.6612V43.073L197.814 48.9177V46.433C197.814 46.2447 197.861 46.0706 197.955 45.9106C198.049 45.7506 198.205 45.6189 198.421 45.5153L203.546 42.8753C203.988 42.6589 204.473 42.4894 205 42.3671C204.473 42.2447 203.988 42.0753 203.546 41.8589L198.421 39.233C198.205 39.12 198.049 38.9883 197.955 38.8377C197.861 38.6777 197.814 38.5036 197.814 38.3153V35.8306L209.009 41.6612Z" fill="#22D105"/>
              <rect x="181.741" y="19.7414" width="42.5172" height="42.5172" rx="21.2586" stroke="#22D105" stroke-width="7.48276"/>
              <path d="M181.86 84.384C181.807 84.4747 181.751 84.5413 181.692 84.584C181.633 84.6267 181.559 84.648 181.468 84.648C181.372 84.648 181.263 84.6053 181.14 84.52C181.017 84.4293 180.863 84.3307 180.676 84.224C180.495 84.112 180.276 84.0133 180.02 83.928C179.764 83.8373 179.457 83.792 179.1 83.792C178.764 83.792 178.468 83.8373 178.212 83.928C177.961 84.0133 177.751 84.1333 177.58 84.288C177.409 84.4373 177.279 84.616 177.188 84.824C177.103 85.0267 177.06 85.248 177.06 85.488C177.06 85.7973 177.137 86.0533 177.292 86.256C177.452 86.4587 177.66 86.632 177.916 86.776C178.172 86.92 178.463 87.0453 178.788 87.152C179.113 87.2587 179.447 87.3707 179.788 87.488C180.129 87.6 180.463 87.7307 180.788 87.88C181.113 88.0293 181.404 88.2187 181.66 88.448C181.916 88.672 182.121 88.9493 182.276 89.28C182.436 89.6053 182.516 90.0053 182.516 90.48C182.516 90.9867 182.428 91.4613 182.252 91.904C182.081 92.3467 181.831 92.7333 181.5 93.064C181.169 93.3947 180.761 93.656 180.276 93.848C179.796 94.0347 179.249 94.128 178.636 94.128C178.268 94.128 177.911 94.0907 177.564 94.016C177.217 93.9467 176.889 93.848 176.58 93.72C176.271 93.5867 175.98 93.4293 175.708 93.248C175.441 93.0613 175.201 92.8533 174.988 92.624L175.476 91.808C175.524 91.744 175.58 91.6907 175.644 91.648C175.713 91.6053 175.791 91.584 175.876 91.584C175.988 91.584 176.116 91.6427 176.26 91.76C176.409 91.8773 176.591 92.008 176.804 92.152C177.023 92.2907 177.281 92.4187 177.58 92.536C177.884 92.6533 178.252 92.712 178.684 92.712C179.036 92.712 179.351 92.6667 179.628 92.576C179.905 92.48 180.137 92.3467 180.324 92.176C180.516 92 180.663 91.7893 180.764 91.544C180.865 91.2987 180.916 91.0267 180.916 90.728C180.916 90.392 180.839 90.1173 180.684 89.904C180.529 89.6907 180.324 89.512 180.068 89.368C179.812 89.224 179.521 89.1013 179.196 89C178.871 88.8987 178.537 88.7947 178.196 88.688C177.855 88.576 177.521 88.448 177.196 88.304C176.871 88.16 176.58 87.9733 176.324 87.744C176.068 87.5093 175.863 87.2187 175.708 86.872C175.553 86.52 175.476 86.088 175.476 85.576C175.476 85.1653 175.556 84.768 175.716 84.384C175.876 84 176.108 83.6613 176.412 83.368C176.721 83.0693 177.1 82.832 177.548 82.656C177.996 82.4747 178.508 82.384 179.084 82.384C179.729 82.384 180.321 82.488 180.86 82.696C181.404 82.8987 181.876 83.192 182.276 83.576L181.86 84.384ZM185.719 86.904C186.06 86.5573 186.436 86.2773 186.847 86.064C187.263 85.8507 187.74 85.744 188.279 85.744C188.727 85.744 189.119 85.8187 189.455 85.968C189.796 86.1173 190.081 86.328 190.311 86.6C190.54 86.8667 190.713 87.1893 190.831 87.568C190.948 87.9467 191.007 88.3653 191.007 88.824V94H189.439V88.824C189.439 88.2427 189.305 87.792 189.039 87.472C188.772 87.1467 188.364 86.984 187.815 86.984C187.415 86.984 187.039 87.08 186.687 87.272C186.34 87.4587 186.017 87.7147 185.719 88.04V94H184.159V82.192H185.719V86.904ZM194.744 85.872V94H193.184V85.872H194.744ZM195.04 83.36C195.04 83.504 195.01 83.6427 194.952 83.776C194.893 83.904 194.813 84.0187 194.712 84.12C194.616 84.216 194.501 84.2933 194.368 84.352C194.234 84.4053 194.096 84.432 193.952 84.432C193.808 84.432 193.672 84.4053 193.544 84.352C193.416 84.2933 193.301 84.216 193.2 84.12C193.104 84.0187 193.026 83.904 192.968 83.776C192.914 83.6427 192.888 83.504 192.888 83.36C192.888 83.2107 192.914 83.072 192.968 82.944C193.026 82.8107 193.104 82.696 193.2 82.6C193.301 82.4987 193.416 82.4213 193.544 82.368C193.672 82.3093 193.808 82.28 193.952 82.28C194.096 82.28 194.234 82.3093 194.368 82.368C194.501 82.4213 194.616 82.4987 194.712 82.6C194.813 82.696 194.893 82.8107 194.952 82.944C195.01 83.072 195.04 83.2107 195.04 83.36ZM198.562 92C198.818 92.336 199.093 92.5707 199.386 92.704C199.685 92.8373 200.018 92.904 200.386 92.904C201.101 92.904 201.653 92.648 202.042 92.136C202.437 91.6187 202.634 90.8667 202.634 89.88C202.634 89.3627 202.589 88.9227 202.498 88.56C202.413 88.192 202.285 87.8933 202.114 87.664C201.949 87.4293 201.744 87.2587 201.498 87.152C201.253 87.04 200.976 86.984 200.666 86.984C200.213 86.984 199.818 87.0853 199.482 87.288C199.152 87.4907 198.845 87.7787 198.562 88.152V92ZM198.482 87.088C198.653 86.8853 198.834 86.7013 199.026 86.536C199.224 86.3653 199.434 86.2213 199.658 86.104C199.882 85.9813 200.12 85.888 200.37 85.824C200.626 85.7547 200.898 85.72 201.186 85.72C201.65 85.72 202.069 85.8107 202.442 85.992C202.821 86.1733 203.144 86.44 203.41 86.792C203.677 87.144 203.882 87.5787 204.026 88.096C204.176 88.6133 204.25 89.208 204.25 89.88C204.25 90.4827 204.168 91.0427 204.002 91.56C203.842 92.072 203.61 92.5173 203.306 92.896C203.008 93.2747 202.64 93.5733 202.202 93.792C201.77 94.0053 201.282 94.112 200.738 94.112C200.253 94.112 199.837 94.032 199.49 93.872C199.144 93.712 198.834 93.488 198.562 93.2V96.728H197.002V85.872H197.938C198.157 85.872 198.293 85.976 198.346 86.184L198.482 87.088ZM207.562 92C207.818 92.336 208.093 92.5707 208.386 92.704C208.685 92.8373 209.018 92.904 209.386 92.904C210.101 92.904 210.653 92.648 211.042 92.136C211.437 91.6187 211.634 90.8667 211.634 89.88C211.634 89.3627 211.589 88.9227 211.498 88.56C211.413 88.192 211.285 87.8933 211.114 87.664C210.949 87.4293 210.744 87.2587 210.498 87.152C210.253 87.04 209.976 86.984 209.666 86.984C209.213 86.984 208.818 87.0853 208.482 87.288C208.152 87.4907 207.845 87.7787 207.562 88.152V92ZM207.482 87.088C207.653 86.8853 207.834 86.7013 208.026 86.536C208.224 86.3653 208.434 86.2213 208.658 86.104C208.882 85.9813 209.12 85.888 209.37 85.824C209.626 85.7547 209.898 85.72 210.186 85.72C210.65 85.72 211.069 85.8107 211.442 85.992C211.821 86.1733 212.144 86.44 212.41 86.792C212.677 87.144 212.882 87.5787 213.026 88.096C213.176 88.6133 213.25 89.208 213.25 89.88C213.25 90.4827 213.168 91.0427 213.002 91.56C212.842 92.072 212.61 92.5173 212.306 92.896C212.008 93.2747 211.64 93.5733 211.202 93.792C210.77 94.0053 210.282 94.112 209.738 94.112C209.253 94.112 208.837 94.032 208.49 93.872C208.144 93.712 207.834 93.488 207.562 93.2V96.728H206.002V85.872H206.938C207.157 85.872 207.293 85.976 207.346 86.184L207.482 87.088ZM220.386 89.032C220.386 88.7227 220.341 88.4373 220.25 88.176C220.165 87.9147 220.037 87.688 219.866 87.496C219.696 87.304 219.488 87.1547 219.242 87.048C218.997 86.9413 218.714 86.888 218.394 86.888C217.738 86.888 217.221 87.0773 216.842 87.456C216.469 87.8347 216.232 88.36 216.13 89.032H220.386ZM221.674 92.84C221.482 93.064 221.261 93.2587 221.01 93.424C220.76 93.584 220.493 93.7147 220.21 93.816C219.928 93.9173 219.634 93.992 219.33 94.04C219.032 94.088 218.736 94.112 218.442 94.112C217.882 94.112 217.362 94.0187 216.882 93.832C216.408 93.64 215.994 93.3627 215.642 93C215.296 92.632 215.024 92.1787 214.826 91.64C214.634 91.096 214.538 90.472 214.538 89.768C214.538 89.2027 214.626 88.6773 214.802 88.192C214.978 87.7013 215.229 87.2747 215.554 86.912C215.885 86.5493 216.288 86.264 216.762 86.056C217.237 85.848 217.77 85.744 218.362 85.744C218.858 85.744 219.314 85.8267 219.73 85.992C220.152 86.152 220.514 86.3867 220.818 86.696C221.122 87.0053 221.36 87.3867 221.53 87.84C221.706 88.2933 221.794 88.8107 221.794 89.392C221.794 89.632 221.768 89.7947 221.714 89.88C221.661 89.96 221.562 90 221.418 90H216.09C216.106 90.4853 216.176 90.9093 216.298 91.272C216.421 91.6293 216.589 91.928 216.802 92.168C217.021 92.408 217.28 92.5867 217.578 92.704C217.877 92.8213 218.21 92.88 218.578 92.88C218.925 92.88 219.224 92.84 219.474 92.76C219.73 92.68 219.949 92.5947 220.13 92.504C220.317 92.408 220.472 92.32 220.594 92.24C220.722 92.16 220.834 92.12 220.93 92.12C221.058 92.12 221.157 92.168 221.226 92.264L221.674 92.84ZM228.711 87.84C228.455 87.504 228.178 87.2693 227.879 87.136C227.586 87.0027 227.255 86.936 226.887 86.936C226.172 86.936 225.618 87.1947 225.223 87.712C224.834 88.224 224.639 88.9733 224.639 89.96C224.639 90.4773 224.682 90.92 224.767 91.288C224.858 91.6507 224.986 91.9493 225.151 92.184C225.322 92.4133 225.53 92.584 225.775 92.696C226.02 92.8027 226.298 92.856 226.607 92.856C227.06 92.856 227.452 92.7547 227.783 92.552C228.114 92.3493 228.423 92.064 228.711 91.696V87.84ZM230.279 82.192V94H229.335C229.116 94 228.98 93.896 228.927 93.688L228.791 92.752C228.444 93.1627 228.05 93.4933 227.607 93.744C227.17 93.9893 226.663 94.112 226.087 94.112C225.623 94.112 225.202 94.0213 224.823 93.84C224.45 93.6587 224.13 93.3947 223.863 93.048C223.596 92.696 223.391 92.2613 223.247 91.744C223.103 91.2267 223.031 90.632 223.031 89.96C223.031 89.3573 223.111 88.7973 223.271 88.28C223.431 87.7627 223.663 87.3147 223.967 86.936C224.271 86.5573 224.639 86.2613 225.071 86.048C225.503 85.8293 225.991 85.72 226.535 85.72C227.026 85.72 227.442 85.8 227.783 85.96C228.13 86.12 228.439 86.3467 228.711 86.64V82.192H230.279Z" fill="#181818"/>
              <rect x="487.741" y="13.7414" width="42.5172" height="42.5172" rx="21.2586" fill="#ECECEC"/>
              <path d="M515.009 35.6612V37.073L503.814 42.9177V40.433C503.814 40.2447 503.861 40.0706 503.955 39.9106C504.049 39.7506 504.205 39.6189 504.421 39.5153L509.546 36.8753C509.988 36.6589 510.473 36.4894 511 36.3671C510.473 36.2447 509.988 36.0753 509.546 35.8589L504.421 33.233C504.205 33.12 504.049 32.9883 503.955 32.8377C503.861 32.6777 503.814 32.5036 503.814 32.3153V29.8306L515.009 35.6612Z" fill="#ECECEC"/>
              <rect x="487.741" y="13.7414" width="42.5172" height="42.5172" rx="21.2586" stroke="#ECECEC" stroke-width="7.48276"/>
              <path d="M486.44 82.256C486.44 83.1147 486.301 83.896 486.024 84.6C485.752 85.304 485.365 85.9093 484.864 86.416C484.363 86.9173 483.763 87.3067 483.064 87.584C482.365 87.8613 481.589 88 480.736 88H476.416V76.512H480.736C481.589 76.512 482.365 76.6507 483.064 76.928C483.763 77.2053 484.363 77.5973 484.864 78.104C485.365 78.6053 485.752 79.2107 486.024 79.92C486.301 80.624 486.44 81.4027 486.44 82.256ZM484.696 82.256C484.696 81.5733 484.603 80.9627 484.416 80.424C484.229 79.88 483.963 79.4213 483.616 79.048C483.275 78.6693 482.859 78.3813 482.368 78.184C481.883 77.9867 481.339 77.888 480.736 77.888H478.128V86.624H480.736C481.339 86.624 481.883 86.5253 482.368 86.328C482.859 86.1307 483.275 85.8453 483.616 85.472C483.963 85.0933 484.229 84.6347 484.416 84.096C484.603 83.5573 484.696 82.944 484.696 82.256ZM493.543 83.032C493.543 82.7227 493.497 82.4373 493.407 82.176C493.321 81.9147 493.193 81.688 493.023 81.496C492.852 81.304 492.644 81.1547 492.399 81.048C492.153 80.9413 491.871 80.888 491.551 80.888C490.895 80.888 490.377 81.0773 489.999 81.456C489.625 81.8347 489.388 82.36 489.287 83.032H493.543ZM494.831 86.84C494.639 87.064 494.417 87.2587 494.167 87.424C493.916 87.584 493.649 87.7147 493.367 87.816C493.084 87.9173 492.791 87.992 492.487 88.04C492.188 88.088 491.892 88.112 491.599 88.112C491.039 88.112 490.519 88.0187 490.039 87.832C489.564 87.64 489.151 87.3627 488.799 87C488.452 86.632 488.18 86.1787 487.983 85.64C487.791 85.096 487.695 84.472 487.695 83.768C487.695 83.2027 487.783 82.6773 487.959 82.192C488.135 81.7013 488.385 81.2747 488.711 80.912C489.041 80.5493 489.444 80.264 489.919 80.056C490.393 79.848 490.927 79.744 491.519 79.744C492.015 79.744 492.471 79.8267 492.887 79.992C493.308 80.152 493.671 80.3867 493.975 80.696C494.279 81.0053 494.516 81.3867 494.687 81.84C494.863 82.2933 494.951 82.8107 494.951 83.392C494.951 83.632 494.924 83.7947 494.871 83.88C494.817 83.96 494.719 84 494.575 84H489.247C489.263 84.4853 489.332 84.9093 489.455 85.272C489.577 85.6293 489.745 85.928 489.959 86.168C490.177 86.408 490.436 86.5867 490.735 86.704C491.033 86.8213 491.367 86.88 491.735 86.88C492.081 86.88 492.38 86.84 492.631 86.76C492.887 86.68 493.105 86.5947 493.287 86.504C493.473 86.408 493.628 86.32 493.751 86.24C493.879 86.16 493.991 86.12 494.087 86.12C494.215 86.12 494.313 86.168 494.383 86.264L494.831 86.84ZM498.227 76.192V88H496.659V76.192H498.227ZM502.087 79.872V88H500.527V79.872H502.087ZM502.383 77.36C502.383 77.504 502.354 77.6427 502.295 77.776C502.237 77.904 502.157 78.0187 502.055 78.12C501.959 78.216 501.845 78.2933 501.711 78.352C501.578 78.4053 501.439 78.432 501.295 78.432C501.151 78.432 501.015 78.4053 500.887 78.352C500.759 78.2933 500.645 78.216 500.543 78.12C500.447 78.0187 500.37 77.904 500.311 77.776C500.258 77.6427 500.231 77.504 500.231 77.36C500.231 77.2107 500.258 77.072 500.311 76.944C500.37 76.8107 500.447 76.696 500.543 76.6C500.645 76.4987 500.759 76.4213 500.887 76.368C501.015 76.3093 501.151 76.28 501.295 76.28C501.439 76.28 501.578 76.3093 501.711 76.368C501.845 76.4213 501.959 76.4987 502.055 76.6C502.157 76.696 502.237 76.8107 502.295 76.944C502.354 77.072 502.383 77.2107 502.383 77.36ZM511.402 79.872L508.106 88H506.698L503.402 79.872H504.69C504.813 79.872 504.914 79.9013 504.994 79.96C505.074 80.0187 505.127 80.0933 505.154 80.184L507.098 85.176C507.167 85.384 507.226 85.592 507.274 85.8C507.327 86.0027 507.375 86.2053 507.418 86.408C507.461 86.2053 507.509 86.0027 507.562 85.8C507.615 85.5973 507.679 85.3893 507.754 85.176L509.722 80.184C509.754 80.0933 509.81 80.0187 509.89 79.96C509.97 79.9013 510.066 79.872 510.178 79.872H511.402ZM517.793 83.032C517.793 82.7227 517.747 82.4373 517.657 82.176C517.571 81.9147 517.443 81.688 517.273 81.496C517.102 81.304 516.894 81.1547 516.649 81.048C516.403 80.9413 516.121 80.888 515.801 80.888C515.145 80.888 514.627 81.0773 514.249 81.456C513.875 81.8347 513.638 82.36 513.537 83.032H517.793ZM519.081 86.84C518.889 87.064 518.667 87.2587 518.417 87.424C518.166 87.584 517.899 87.7147 517.617 87.816C517.334 87.9173 517.041 87.992 516.737 88.04C516.438 88.088 516.142 88.112 515.849 88.112C515.289 88.112 514.769 88.0187 514.289 87.832C513.814 87.64 513.401 87.3627 513.049 87C512.702 86.632 512.43 86.1787 512.233 85.64C512.041 85.096 511.945 84.472 511.945 83.768C511.945 83.2027 512.033 82.6773 512.209 82.192C512.385 81.7013 512.635 81.2747 512.961 80.912C513.291 80.5493 513.694 80.264 514.169 80.056C514.643 79.848 515.177 79.744 515.769 79.744C516.265 79.744 516.721 79.8267 517.137 79.992C517.558 80.152 517.921 80.3867 518.225 80.696C518.529 81.0053 518.766 81.3867 518.937 81.84C519.113 82.2933 519.201 82.8107 519.201 83.392C519.201 83.632 519.174 83.7947 519.121 83.88C519.067 83.96 518.969 84 518.825 84H513.497C513.513 84.4853 513.582 84.9093 513.705 85.272C513.827 85.6293 513.995 85.928 514.209 86.168C514.427 86.408 514.686 86.5867 514.985 86.704C515.283 86.8213 515.617 86.88 515.985 86.88C516.331 86.88 516.63 86.84 516.881 86.76C517.137 86.68 517.355 86.5947 517.537 86.504C517.723 86.408 517.878 86.32 518.001 86.24C518.129 86.16 518.241 86.12 518.337 86.12C518.465 86.12 518.563 86.168 518.633 86.264L519.081 86.84ZM522.349 81.432C522.611 80.8987 522.925 80.48 523.293 80.176C523.661 79.872 524.104 79.72 524.621 79.72C524.797 79.72 524.963 79.7413 525.117 79.784C525.277 79.8213 525.416 79.88 525.533 79.96L525.429 81.136C525.392 81.28 525.304 81.352 525.165 81.352C525.091 81.352 524.979 81.3387 524.829 81.312C524.68 81.28 524.52 81.264 524.349 81.264C524.099 81.264 523.877 81.3013 523.685 81.376C523.493 81.4453 523.32 81.552 523.165 81.696C523.016 81.8347 522.883 82.008 522.765 82.216C522.648 82.4187 522.539 82.6507 522.437 82.912V88H520.877V79.872H521.773C521.944 79.872 522.059 79.904 522.117 79.968C522.181 80.0267 522.227 80.1333 522.253 80.288L522.349 81.432ZM531.824 83.032C531.824 82.7227 531.778 82.4373 531.688 82.176C531.602 81.9147 531.474 81.688 531.304 81.496C531.133 81.304 530.925 81.1547 530.68 81.048C530.434 80.9413 530.152 80.888 529.832 80.888C529.176 80.888 528.658 81.0773 528.28 81.456C527.906 81.8347 527.669 82.36 527.568 83.032H531.824ZM533.112 86.84C532.92 87.064 532.698 87.2587 532.448 87.424C532.197 87.584 531.93 87.7147 531.648 87.816C531.365 87.9173 531.072 87.992 530.768 88.04C530.469 88.088 530.173 88.112 529.88 88.112C529.32 88.112 528.8 88.0187 528.32 87.832C527.845 87.64 527.432 87.3627 527.08 87C526.733 86.632 526.461 86.1787 526.264 85.64C526.072 85.096 525.976 84.472 525.976 83.768C525.976 83.2027 526.064 82.6773 526.24 82.192C526.416 81.7013 526.666 81.2747 526.992 80.912C527.322 80.5493 527.725 80.264 528.2 80.056C528.674 79.848 529.208 79.744 529.8 79.744C530.296 79.744 530.752 79.8267 531.168 79.992C531.589 80.152 531.952 80.3867 532.256 80.696C532.56 81.0053 532.797 81.3867 532.968 81.84C533.144 82.2933 533.232 82.8107 533.232 83.392C533.232 83.632 533.205 83.7947 533.152 83.88C533.098 83.96 533 84 532.856 84H527.528C527.544 84.4853 527.613 84.9093 527.736 85.272C527.858 85.6293 528.026 85.928 528.24 86.168C528.458 86.408 528.717 86.5867 529.016 86.704C529.314 86.8213 529.648 86.88 530.016 86.88C530.362 86.88 530.661 86.84 530.912 86.76C531.168 86.68 531.386 86.5947 531.568 86.504C531.754 86.408 531.909 86.32 532.032 86.24C532.16 86.16 532.272 86.12 532.368 86.12C532.496 86.12 532.594 86.168 532.664 86.264L533.112 86.84ZM540.149 81.84C539.893 81.504 539.615 81.2693 539.317 81.136C539.023 81.0027 538.693 80.936 538.325 80.936C537.61 80.936 537.055 81.1947 536.661 81.712C536.271 82.224 536.077 82.9733 536.077 83.96C536.077 84.4773 536.119 84.92 536.205 85.288C536.295 85.6507 536.423 85.9493 536.589 86.184C536.759 86.4133 536.967 86.584 537.213 86.696C537.458 86.8027 537.735 86.856 538.045 86.856C538.498 86.856 538.89 86.7547 539.221 86.552C539.551 86.3493 539.861 86.064 540.149 85.696V81.84ZM541.717 76.192V88H540.773C540.554 88 540.418 87.896 540.365 87.688L540.229 86.752C539.882 87.1627 539.487 87.4933 539.045 87.744C538.607 87.9893 538.101 88.112 537.525 88.112C537.061 88.112 536.639 88.0213 536.261 87.84C535.887 87.6587 535.567 87.3947 535.301 87.048C535.034 86.696 534.829 86.2613 534.685 85.744C534.541 85.2267 534.469 84.632 534.469 83.96C534.469 83.3573 534.549 82.7973 534.709 82.28C534.869 81.7627 535.101 81.3147 535.405 80.936C535.709 80.5573 536.077 80.2613 536.509 80.048C536.941 79.8293 537.429 79.72 537.973 79.72C538.463 79.72 538.879 79.8 539.221 79.96C539.567 80.12 539.877 80.3467 540.149 80.64V76.192H541.717Z" fill="#181818"/>
              <rect x="68" y="40" width="115" height="4" fill="#22D105"/>
              <circle cx="393" cy="40" r="5" fill="#ECECEC"/>
              <circle cx="411" cy="40" r="5" fill="#ECECEC"/>
              <circle cx="429" cy="40" r="5" fill="#ECECEC"/>
              <circle cx="447" cy="40" r="5" fill="#ECECEC"/>
              <circle cx="465" cy="40" r="5" fill="#ECECEC"/>
              <circle cx="242" cy="40" r="5" fill="#ECECEC"/>
              <circle cx="260" cy="40" r="5" fill="#ECECEC"/>
              <circle cx="278" cy="40" r="5" fill="#ECECEC"/>
              <circle cx="296" cy="40" r="5" fill="#ECECEC"/>
              <circle cx="314" cy="40" r="5" fill="#ECECEC"/>
              <path d="M330 41C330 27.1929 341.193 16 355 16C368.807 16 380 27.1929 380 41C380 54.8071 368.807 66 355 66C341.193 66 330 54.8071 330 41Z" fill="#ECECEC"/>
              <path d="M326.128 94H324.416V82.512H326.128V94ZM329.982 87C330.158 86.8133 330.342 86.6427 330.534 86.488C330.726 86.3333 330.929 86.2027 331.142 86.096C331.361 85.984 331.593 85.8987 331.838 85.84C332.089 85.776 332.355 85.744 332.638 85.744C333.086 85.744 333.478 85.8187 333.814 85.968C334.155 86.1173 334.441 86.328 334.67 86.6C334.899 86.8667 335.073 87.1893 335.19 87.568C335.307 87.9467 335.366 88.3653 335.366 88.824V94H333.798V88.824C333.798 88.2427 333.665 87.792 333.398 87.472C333.131 87.1467 332.723 86.984 332.174 86.984C331.774 86.984 331.398 87.08 331.046 87.272C330.699 87.4587 330.377 87.7147 330.078 88.04V94H328.518V85.872H329.454C329.673 85.872 329.809 85.976 329.862 86.184L329.982 87ZM349.186 83.936H345.538V94H343.842V83.936H340.178V82.512H349.186V83.936ZM350.271 87.432C350.532 86.8987 350.847 86.48 351.215 86.176C351.583 85.872 352.026 85.72 352.543 85.72C352.719 85.72 352.884 85.7413 353.039 85.784C353.199 85.8213 353.338 85.88 353.455 85.96L353.351 87.136C353.314 87.28 353.226 87.352 353.087 87.352C353.012 87.352 352.9 87.3387 352.751 87.312C352.602 87.28 352.442 87.264 352.271 87.264C352.02 87.264 351.799 87.3013 351.607 87.376C351.415 87.4453 351.242 87.552 351.087 87.696C350.938 87.8347 350.804 88.008 350.687 88.216C350.57 88.4187 350.46 88.6507 350.359 88.912V94H348.799V85.872H349.695C349.866 85.872 349.98 85.904 350.039 85.968C350.103 86.0267 350.148 86.1333 350.175 86.288L350.271 87.432ZM358.902 90.392C358.267 90.4133 357.728 90.464 357.286 90.544C356.843 90.6187 356.483 90.72 356.206 90.848C355.928 90.976 355.728 91.128 355.606 91.304C355.483 91.4747 355.422 91.6667 355.422 91.88C355.422 92.0827 355.454 92.2587 355.518 92.408C355.587 92.552 355.678 92.672 355.789 92.768C355.907 92.8587 356.043 92.9253 356.198 92.968C356.352 93.0107 356.52 93.032 356.702 93.032C356.942 93.032 357.16 93.008 357.358 92.96C357.56 92.912 357.75 92.8453 357.926 92.76C358.102 92.6693 358.27 92.56 358.43 92.432C358.59 92.304 358.747 92.1573 358.902 91.992V90.392ZM354.326 87.008C354.779 86.576 355.27 86.2533 355.798 86.04C356.331 85.8267 356.915 85.72 357.549 85.72C358.014 85.72 358.424 85.7973 358.782 85.952C359.139 86.1013 359.44 86.312 359.686 86.584C359.931 86.856 360.115 87.1813 360.238 87.56C360.366 87.9387 360.43 88.3573 360.43 88.816V94H359.734C359.579 94 359.462 93.976 359.382 93.928C359.302 93.8747 359.238 93.7787 359.19 93.64L359.022 92.928C358.814 93.12 358.608 93.2907 358.406 93.44C358.203 93.584 357.99 93.7093 357.766 93.816C357.547 93.9173 357.312 93.9947 357.062 94.048C356.811 94.1013 356.534 94.128 356.23 94.128C355.91 94.128 355.608 94.0853 355.326 94C355.048 93.9093 354.806 93.7733 354.598 93.592C354.39 93.4107 354.224 93.184 354.102 92.912C353.984 92.64 353.926 92.3227 353.926 91.96C353.926 91.64 354.011 91.3333 354.182 91.04C354.358 90.7413 354.64 90.4747 355.03 90.24C355.424 90.0053 355.936 89.8133 356.566 89.664C357.2 89.5147 357.979 89.4293 358.902 89.408V88.816C358.902 88.2027 358.771 87.744 358.51 87.44C358.248 87.136 357.864 86.984 357.358 86.984C357.016 86.984 356.728 87.0267 356.494 87.112C356.264 87.1973 356.064 87.2933 355.894 87.4C355.728 87.5013 355.582 87.5947 355.454 87.68C355.331 87.7653 355.203 87.808 355.07 87.808C354.963 87.808 354.87 87.7787 354.79 87.72C354.715 87.6613 354.654 87.592 354.606 87.512L354.326 87.008ZM363.982 87C364.158 86.8133 364.342 86.6427 364.534 86.488C364.726 86.3333 364.929 86.2027 365.142 86.096C365.361 85.984 365.593 85.8987 365.838 85.84C366.089 85.776 366.355 85.744 366.638 85.744C367.086 85.744 367.478 85.8187 367.814 85.968C368.155 86.1173 368.441 86.328 368.67 86.6C368.899 86.8667 369.073 87.1893 369.19 87.568C369.307 87.9467 369.366 88.3653 369.366 88.824V94H367.798V88.824C367.798 88.2427 367.665 87.792 367.398 87.472C367.131 87.1467 366.723 86.984 366.174 86.984C365.774 86.984 365.398 87.08 365.046 87.272C364.699 87.4587 364.377 87.7147 364.078 88.04V94H362.518V85.872H363.454C363.673 85.872 363.809 85.976 363.862 86.184L363.982 87ZM376.263 87.272C376.22 87.3413 376.175 87.392 376.127 87.424C376.079 87.4507 376.018 87.464 375.943 87.464C375.858 87.464 375.762 87.4347 375.655 87.376C375.554 87.3173 375.428 87.2533 375.279 87.184C375.135 87.1147 374.964 87.0507 374.767 86.992C374.57 86.9333 374.335 86.904 374.063 86.904C373.839 86.904 373.634 86.9333 373.447 86.992C373.266 87.0453 373.111 87.1227 372.983 87.224C372.855 87.32 372.756 87.4373 372.687 87.576C372.618 87.7093 372.583 87.8533 372.583 88.008C372.583 88.2107 372.642 88.3787 372.759 88.512C372.882 88.6453 373.039 88.76 373.231 88.856C373.428 88.952 373.65 89.04 373.895 89.12C374.146 89.1947 374.399 89.2747 374.655 89.36C374.916 89.4453 375.17 89.544 375.415 89.656C375.666 89.7627 375.887 89.8987 376.079 90.064C376.276 90.224 376.434 90.4187 376.551 90.648C376.674 90.8773 376.735 91.1573 376.735 91.488C376.735 91.8667 376.666 92.2187 376.527 92.544C376.394 92.864 376.194 93.1413 375.927 93.376C375.666 93.6107 375.34 93.7947 374.951 93.928C374.562 94.0613 374.116 94.128 373.615 94.128C373.055 94.128 372.538 94.0347 372.063 93.848C371.588 93.6613 371.191 93.424 370.871 93.136L371.239 92.536C371.282 92.4613 371.335 92.4053 371.399 92.368C371.463 92.3253 371.548 92.304 371.655 92.304C371.756 92.304 371.86 92.3413 371.967 92.416C372.074 92.4907 372.202 92.5733 372.351 92.664C372.5 92.7493 372.682 92.8293 372.895 92.904C373.108 92.9733 373.375 93.008 373.695 93.008C373.962 93.008 374.194 92.976 374.391 92.912C374.588 92.8427 374.751 92.752 374.879 92.64C375.012 92.5227 375.111 92.3893 375.175 92.24C375.239 92.0907 375.271 91.9333 375.271 91.768C375.271 91.5547 375.21 91.3787 375.087 91.24C374.97 91.096 374.812 90.9733 374.615 90.872C374.423 90.7707 374.202 90.6827 373.951 90.608C373.7 90.5333 373.444 90.4533 373.183 90.368C372.922 90.2827 372.666 90.184 372.415 90.072C372.164 89.96 371.94 89.8187 371.743 89.648C371.551 89.4773 371.394 89.2693 371.271 89.024C371.154 88.7787 371.095 88.48 371.095 88.128C371.095 87.8133 371.159 87.512 371.287 87.224C371.42 86.936 371.61 86.6827 371.855 86.464C372.106 86.2453 372.412 86.072 372.775 85.944C373.143 85.8107 373.562 85.744 374.031 85.744C374.57 85.744 375.055 85.8293 375.487 86C375.924 86.1707 376.298 86.4053 376.607 86.704L376.263 87.272ZM380.056 85.872V94H378.496V85.872H380.056ZM380.352 83.36C380.352 83.504 380.323 83.6427 380.264 83.776C380.205 83.904 380.125 84.0187 380.024 84.12C379.928 84.216 379.813 84.2933 379.68 84.352C379.547 84.4053 379.408 84.432 379.264 84.432C379.12 84.432 378.984 84.4053 378.856 84.352C378.728 84.2933 378.613 84.216 378.512 84.12C378.416 84.0187 378.339 83.904 378.28 83.776C378.227 83.6427 378.2 83.504 378.2 83.36C378.2 83.2107 378.227 83.072 378.28 82.944C378.339 82.8107 378.416 82.696 378.512 82.6C378.613 82.4987 378.728 82.4213 378.856 82.368C378.984 82.3093 379.12 82.28 379.264 82.28C379.408 82.28 379.547 82.3093 379.68 82.368C379.813 82.4213 379.928 82.4987 380.024 82.6C380.125 82.696 380.205 82.8107 380.264 82.944C380.323 83.072 380.352 83.2107 380.352 83.36ZM384.859 94.128C384.203 94.128 383.696 93.944 383.339 93.576C382.987 93.208 382.811 92.6827 382.811 92V87.136H381.867C381.776 87.136 381.699 87.1093 381.635 87.056C381.576 86.9973 381.547 86.912 381.547 86.8V86.168L382.867 85.984L383.219 83.56C383.24 83.4693 383.28 83.4 383.339 83.352C383.403 83.2987 383.483 83.272 383.579 83.272H384.371V86H386.675V87.136H384.371V91.896C384.371 92.216 384.448 92.456 384.603 92.616C384.763 92.7707 384.965 92.848 385.211 92.848C385.355 92.848 385.477 92.8293 385.579 92.792C385.685 92.7547 385.776 92.7147 385.851 92.672C385.925 92.624 385.989 92.5813 386.043 92.544C386.096 92.5067 386.144 92.488 386.187 92.488C386.24 92.488 386.28 92.5013 386.307 92.528C386.339 92.5493 386.371 92.5867 386.403 92.64L386.867 93.392C386.611 93.6267 386.307 93.808 385.955 93.936C385.603 94.064 385.237 94.128 384.859 94.128Z" fill="#181818"/>
              </svg>