<svg width="551" height="551" viewBox="0 0 551 551" fill="none" xmlns="http://www.w3.org/2000/svg">
<path d="M388.585 319.233V326.801H305.657V319.233H388.585ZM188.308 386.099C188.691 387.472 188.914 388.908 188.914 390.41C188.914 399.159 181.794 406.28 173.012 406.28C164.263 406.28 157.142 399.159 157.142 390.41C157.142 388.909 157.365 387.473 157.748 386.099H145.518C144.848 388.557 144.464 391.176 144.464 393.859C144.464 409.633 157.237 422.438 173.011 422.438C188.818 422.438 201.591 409.633 201.591 393.859C201.591 391.176 201.207 388.558 200.505 386.099H188.308ZM344.742 388.109C345.126 389.482 345.317 390.92 345.317 392.421C345.317 401.203 338.228 408.291 329.447 408.291C320.697 408.291 313.576 401.202 313.576 392.421C313.576 390.92 313.799 389.483 314.182 388.109H301.954C301.252 390.569 300.868 393.187 300.868 395.87C300.868 411.676 313.673 424.449 329.448 424.449C345.222 424.449 358.027 411.676 358.027 395.87C358.027 393.187 357.644 390.57 356.941 388.109H344.742Z" fill="#181818"/>
<path d="M387.148 386.898H282.155L282.219 384.279C282.858 379.903 288.19 348.579 310.383 338.393C334.268 327.376 366.87 350.304 366.87 350.304C366.87 350.304 380.315 357.135 387.148 386.898ZM205.487 371.602C200.186 362.821 202.55 304.831 203.38 287.238C202.23 288.61 200.091 289.696 197.951 288.867C195.396 287.876 195.524 286.152 195.524 286.152C195.524 286.152 194.311 286.471 192.491 286.917C186.296 293.528 174.29 307.13 171.799 316.008C168.382 328.11 168.382 356.944 171.799 368.024C175.215 379.137 191.564 384.822 191.564 384.822H225.795C225.796 384.822 211.746 381.98 205.487 371.602ZM479.495 318.212C467.553 341.138 474.961 379.808 474.961 379.808C484.413 359.34 479.495 318.212 479.495 318.212ZM173.492 266.226C168.574 266.928 164.774 271.175 164.774 276.316C164.774 281.425 168.542 285.672 173.492 286.374C173.492 281.554 173.492 269.707 173.492 266.226ZM439.261 296.689C439.261 296.689 440.059 343.278 472.47 390.633C472.47 390.633 474.801 363.779 463.689 333.093C452.609 302.373 439.261 296.689 439.261 296.689ZM431.948 390.633C407.137 391.751 401.613 397.977 401.613 397.977C401.613 397.977 442.199 400.819 470.618 392.869C470.618 392.869 456.792 389.515 431.948 390.633ZM443.604 356.657C425.115 340.181 410.331 338.488 410.331 338.488C410.331 338.488 440.474 384.789 470.618 391.495C470.618 391.495 462.092 373.134 443.604 356.657ZM131.629 425.758C117.707 426.907 104.934 420.936 112.885 402.735C120.836 384.534 122.273 372.304 102.093 370.612C88.362 369.462 79.1336 374.188 73.1624 370.835C72.2368 326.673 96.1214 302.852 96.1214 302.852C96.1214 302.852 91.1721 305.885 80.1869 326.162C73.2578 338.936 72.0443 357.839 72.1082 370.132C69.8413 368.345 68.0845 365.024 66.8396 359.243C62.2726 338.488 61.9847 338.775 54.3216 338.775C46.7213 338.775 39.9199 343.373 39.7607 343.501C35.9287 376.583 49.6592 410.016 93.1826 423.97C114.034 430.676 131.086 433.039 147.02 432.081C146.988 431.921 145.423 424.641 131.629 425.758ZM94.9385 291.357C94.9385 291.357 90.7871 296.625 94.9385 302.5C94.9385 302.501 100.112 296.497 94.9385 291.357ZM90.3085 308.6C90.3085 308.6 92.9271 301.128 86.221 298.222C86.221 298.222 84.3059 304.639 90.3085 308.6ZM91.7136 309.463C98.1642 312.624 102.73 307.706 102.73 307.706C96.8545 303.394 91.7136 309.463 91.7136 309.463ZM99.3777 314.794C93.5019 310.516 88.361 316.551 88.361 316.551C94.8107 319.712 99.3777 314.794 99.3777 314.794ZM95.0986 323.161C89.2228 318.882 84.1143 324.917 84.1143 324.917C90.564 328.078 95.0986 323.161 95.0986 323.161ZM91.4267 331.719C85.5509 327.44 80.4424 333.475 80.4424 333.475C86.8921 336.637 91.4267 331.719 91.4267 331.719ZM76.7372 345.226C83.1878 348.387 87.7538 343.469 87.7538 343.469C81.8466 339.191 76.7372 345.226 76.7372 345.226ZM85.4231 314.986C85.4231 314.986 88.0417 307.514 81.368 304.609C81.368 304.609 79.452 311.027 85.4231 314.986ZM80.5692 323.991C80.5692 323.991 83.1878 316.519 76.5141 313.613C76.5141 313.613 74.5666 320.032 80.5692 323.991ZM75.7162 332.517C75.7162 332.517 78.3348 325.044 71.6287 322.139C71.6287 322.139 69.7127 328.557 75.7162 332.517ZM72.3951 346.727C72.3951 346.727 73.8002 338.936 66.7433 337.148C66.7433 337.147 65.8806 343.789 72.3951 346.727Z" fill="#ED7420"/>
<path d="M173.492 288.45C173.492 288.45 173.492 265.683 173.492 265.267C173.492 264.853 173.076 262.426 176.333 261.565C178.856 260.925 195.013 266.801 202.358 269.547C199.675 269.771 195.109 270.505 192.843 272.901C189.521 276.414 189.522 280.372 190.64 281.906C191.789 283.407 194.631 285.801 195.877 284.172C197.09 282.576 196.324 279.83 199.549 279.064C201.943 278.49 203.923 279.415 204.658 281.043L204.626 281.33C204.626 281.33 204.785 284.747 203.923 286.441C203.061 288.163 200.507 289.856 197.952 288.868C195.397 287.877 195.525 286.153 195.525 286.153C195.525 286.153 180.453 290.016 178.059 290.016C175.631 290.015 173.492 288.45 173.492 288.45ZM365.338 386.898H134.12C135.078 372.177 153.982 351.932 169.468 351.485C169.851 358.19 170.618 364.194 171.799 368.024C173.012 371.985 175.854 375.21 179.016 377.796C206.413 378.754 243.071 380.479 276.663 382.172V335.486V333.953C277.589 333.922 278.547 333.89 279.538 333.826C288.319 333.347 294.514 330.984 298.825 326.8H355.695L366.871 350.303C366.871 350.303 334.268 327.376 310.384 338.392C290.235 347.653 283.976 374.379 282.507 382.458C327.467 384.757 365.338 386.898 365.338 386.898Z" fill="#E3482C"/>
<path d="M383.093 240.84V269.451H313.577V240.84H383.093ZM225.158 362.948C225.669 366.141 226.083 368.121 226.083 368.121H238.026C238.026 368.121 238.075 366.544 238.277 364.091C238.307 363.729 238.34 363.347 238.377 362.948H225.158Z" fill="#6FA9DC"/>
<path d="M268.553 208.461C266.382 211.239 267.628 217.21 267.659 217.21C266.446 217.913 265.265 218.52 264.562 220.404C263.253 223.916 266.35 229.312 266.35 229.312L257.985 233.273L257.187 233.656C257.187 233.656 257.538 224.842 256.612 224.013C255.654 223.15 249.012 228.068 242.945 221.426C238.124 216.158 240.998 203.481 242.37 198.594C246.586 200.479 250.705 199.809 253.291 199.936C257.282 200.128 257.09 201.916 257.538 206.099C258.017 210.251 262.806 211.719 263.189 206.515C263.573 201.309 265.361 199.681 267.755 200.447C270.118 201.213 270.724 205.651 268.553 208.461ZM245.21 262.362C245.21 262.362 220.016 270.154 204.401 269.451C204.401 269.451 196.13 269.387 192.842 272.9C189.521 276.413 189.521 280.371 190.639 281.905C191.788 283.406 194.63 285.8 195.876 284.171C197.089 282.575 196.323 279.829 199.548 279.063C202.773 278.297 205.232 280.181 204.944 282.926C204.689 285.705 206.668 285.034 208.361 283.789C210.085 282.575 210.724 280.563 211.107 278.297C211.49 276.028 213.118 276.126 213.662 276.22C214.236 276.317 230.138 280.819 250.894 277.147C248.404 272.836 246.104 265.365 245.21 262.362ZM229.213 375.018H235.536L236.11 368.121H228.51L229.213 375.018Z" fill="#FFD2BB"/>
<path d="M488.402 261.084C463.528 222.862 419.493 244.416 353.746 206.672C287.998 168.961 320.76 101.713 216.63 101.649C126.742 101.616 103.4 180.84 112.5 223.565C122.751 271.782 54.7686 291.452 44.9969 330.793C44.1018 334.406 43.4058 338.055 42.9161 341.712C45.6439 340.374 49.8379 338.775 54.3216 338.775C61.9847 338.775 62.2726 338.488 66.8396 359.243C68.0845 365.024 69.8413 368.345 72.1082 370.132C72.0443 357.839 73.2578 338.936 80.1869 326.162C91.1721 305.885 96.1214 302.852 96.1214 302.852C96.1214 302.852 72.2368 326.673 73.1625 370.835C79.1336 374.188 88.362 369.462 102.093 370.612C122.273 372.304 120.836 384.534 112.885 402.735C104.934 420.936 117.707 426.907 131.629 425.758C145.423 424.641 146.988 431.921 147.02 432.081C145.214 432.189 143.391 432.249 141.552 432.27C166.612 432.636 187.991 424.852 215.321 412.378C238.504 401.776 266.38 391.206 316.162 422.021C365.944 452.867 451.713 428.854 478.568 386.098C500.282 351.484 517.046 305.119 488.402 261.084ZM72.3951 346.727C65.8806 343.789 66.7433 337.147 66.7433 337.148C73.8002 338.936 72.3951 346.727 72.3951 346.727ZM75.7162 332.517C69.7127 328.557 71.6287 322.139 71.6287 322.139C78.3348 325.044 75.7162 332.517 75.7162 332.517ZM80.5692 323.991C74.5666 320.032 76.5141 313.613 76.5141 313.613C83.1878 316.519 80.5692 323.991 80.5692 323.991ZM85.4231 314.986C79.452 311.027 81.368 304.609 81.368 304.609C88.0417 307.514 85.4231 314.986 85.4231 314.986ZM90.3085 308.6C84.3059 304.639 86.221 298.222 86.221 298.222C92.9271 301.128 90.3085 308.6 90.3085 308.6ZM94.9385 302.5C90.7871 296.625 94.9385 291.357 94.9385 291.357C100.112 296.497 94.9385 302.501 94.9385 302.5ZM76.7372 345.226C76.7372 345.226 81.8466 339.191 87.7538 343.469C87.7538 343.469 83.1878 348.387 76.7372 345.226ZM80.4424 333.475C80.4424 333.475 85.5509 327.44 91.4267 331.719C91.4267 331.719 86.8921 336.637 80.4424 333.475ZM84.1143 324.917C84.1143 324.917 89.2228 318.882 95.0986 323.161C95.0986 323.161 90.564 328.078 84.1143 324.917ZM88.361 316.551C88.361 316.551 93.5019 310.516 99.3777 314.794C99.3777 314.794 94.8107 319.712 88.361 316.551ZM91.7136 309.463C91.7136 309.463 96.8545 303.394 102.73 307.706C102.73 307.706 98.1642 312.624 91.7136 309.463ZM313.577 240.84H383.093V269.451H313.577V240.84ZM313.577 271.782H383.093V319.232H313.577V271.782ZM238.889 172.443C238.889 172.443 245.978 165.896 254.44 170.558C262.87 175.188 261.338 186.748 263.509 188.185C265.711 189.589 272.512 188.759 276.983 195.146C281.421 201.564 279.952 212.995 275.546 216.125C271.139 219.254 267.659 217.21 267.659 217.21C266.446 217.913 265.265 218.52 264.562 220.404C263.253 223.916 266.35 229.312 266.35 229.312C307.957 241.894 306.648 309.557 306.648 309.556C291.289 301.03 257.984 305.598 257.984 305.598V279.253L253.577 280.18C249.586 278.488 244.859 261.053 244.859 261.053C249.968 259.903 256.163 255.943 256.163 255.943L255.557 234.996L257.982 233.274L257.187 233.656C257.187 233.656 257.538 224.842 256.612 224.013C255.654 223.15 249.012 228.068 242.945 221.426C238.126 216.161 240.994 203.497 242.368 198.605C240.079 197.58 237.767 195.801 235.664 192.72C229.693 183.97 238.889 172.443 238.889 172.443ZM329.448 424.449C313.673 424.449 300.868 411.676 300.868 395.87C300.868 393.187 301.252 390.569 301.954 388.109H314.182C313.799 389.483 313.576 390.92 313.576 392.421C313.576 401.202 320.697 408.291 329.447 408.291C329.447 408.291 329.447 408.291 329.448 408.291C320.698 408.291 313.577 401.203 313.577 392.421C313.577 390.92 313.8 389.482 314.183 388.109H344.742H356.941C357.644 390.57 358.027 393.187 358.027 395.87C358.027 411.676 345.222 424.449 329.448 424.449ZM388.585 326.801H355.696L366.872 350.303L366.871 350.304C366.871 350.304 380.316 357.135 387.149 386.898H365.339H282.155H200.704C201.27 389.124 201.591 391.462 201.591 393.859C201.591 409.633 188.818 422.438 173.011 422.438C157.237 422.438 144.464 409.633 144.464 393.859C144.464 391.462 144.784 389.124 145.327 386.898H134.12C135.078 372.177 153.982 351.932 169.468 351.485C169.496 351.972 169.53 352.448 169.562 352.928C168.74 340.09 169.484 324.21 171.799 316.008C174.29 307.13 186.296 293.528 192.491 286.917C193.864 286.581 194.89 286.317 195.312 286.208C193.496 286.67 180.288 290.016 178.059 290.016C175.631 290.015 173.492 288.45 173.492 288.45C173.492 288.45 173.492 287.66 173.492 286.374C168.542 285.672 164.774 281.425 164.774 276.316C164.774 271.175 168.574 266.928 173.492 266.226C173.492 265.664 173.492 265.315 173.492 265.267C173.492 264.853 173.076 262.426 176.333 261.565C178.856 260.925 195.009 266.799 202.354 269.546C203.58 269.446 204.401 269.451 204.401 269.451C220.016 270.154 245.21 262.362 245.21 262.362C246.104 265.365 248.404 272.836 250.894 277.147C230.138 280.819 214.236 276.317 213.662 276.22C213.118 276.126 211.49 276.029 211.107 278.297C210.724 280.563 210.085 282.575 208.361 283.789C206.668 285.034 204.689 285.705 204.944 282.926C205.017 282.232 204.905 281.599 204.658 281.044L204.626 281.329C204.626 281.329 204.785 284.746 203.923 286.44C203.784 286.717 203.598 286.991 203.379 287.256C202.548 304.873 200.188 362.822 205.487 371.601C207.402 374.776 210.046 377.243 212.794 379.141C215.143 379.243 217.518 379.348 219.911 379.455C220.13 379.271 220.369 379.095 220.655 378.945C222.538 377.955 222.89 377.731 224.71 377.7C226.529 377.667 228.956 375.017 228.956 375.017H229.213L228.51 368.12H226.083C226.083 368.12 226.025 367.841 225.925 367.325C226.025 367.841 226.083 368.12 226.083 368.12C226.083 368.12 219.633 337.817 226.083 323.798C232.534 309.749 257.984 305.598 257.984 305.598C257.984 305.598 291.288 301.03 306.648 309.556C305.44 317.006 303.034 322.758 298.859 326.799H305.657V319.232H388.585V326.801ZM401.613 397.977C401.613 397.977 407.137 391.751 431.948 390.633C456.792 389.515 470.618 392.869 470.618 392.869C442.199 400.819 401.613 397.977 401.613 397.977ZM410.331 338.488C410.331 338.488 425.115 340.181 443.604 356.657C462.092 373.134 470.618 391.495 470.618 391.495C440.474 384.789 410.331 338.488 410.331 338.488ZM472.47 390.633C440.059 343.278 439.261 296.689 439.261 296.689C439.261 296.689 452.609 302.373 463.689 333.093C474.801 363.779 472.47 390.633 472.47 390.633ZM474.961 379.808C474.961 379.808 467.553 341.138 479.495 318.212C479.495 318.212 484.413 359.34 474.961 379.808ZM276.663 333.953V382.172L237.304 380.224L237.483 375.433C237.483 375.433 237.344 374.313 236.11 374.347L235.535 375.018L236.11 368.121H238.026C238.026 368.121 238.23 347.828 246.329 339.613C246.329 339.613 250.842 335.447 259.288 334.522C267.734 333.596 276.663 333.953 276.663 333.953Z" fill="white"/>
<path d="M306.648 309.557C304.189 324.725 296.781 332.868 279.538 333.826C262.294 334.784 257.185 332.708 247.893 338.392C240.981 342.619 238.894 356.998 238.277 364.091C238.307 363.729 238.34 363.347 238.377 362.948H225.158C225.669 366.141 226.083 368.121 226.083 368.121C226.083 368.121 219.633 337.818 226.083 323.799C232.534 309.75 257.984 305.599 257.984 305.599C257.984 305.599 291.288 301.031 306.648 309.557ZM236.11 374.347C235.822 374.347 235.535 375.018 235.535 375.018H228.956C228.956 375.018 226.529 377.668 224.71 377.701C222.89 377.732 222.538 377.956 220.655 378.946C218.771 379.936 218.452 381.852 218.452 382.235C218.452 382.65 220.559 382.65 222.667 382.65C224.806 382.65 237.228 382.65 237.228 382.65C237.228 382.65 237.483 376.359 237.483 375.433C237.483 374.507 236.397 374.347 236.11 374.347Z" fill="#E84393"/>
<path d="M188.308 386.099C188.691 387.472 188.914 388.908 188.914 390.41C188.914 399.159 181.794 406.28 173.012 406.28C164.263 406.28 157.142 399.159 157.142 390.41C157.142 388.909 157.365 387.473 157.748 386.099H188.308ZM344.742 388.109H314.183C313.8 389.482 313.577 390.92 313.577 392.421C313.577 401.203 320.698 408.291 329.448 408.291C338.229 408.291 345.318 401.202 345.318 392.421C345.317 390.92 345.126 389.483 344.742 388.109ZM266.349 229.312L257.984 233.273L255.557 234.996L256.163 255.943C256.163 255.943 249.968 259.903 244.859 261.053C244.859 261.053 249.586 278.488 253.577 280.18L257.984 279.253V305.598C257.984 305.598 291.289 301.03 306.648 309.556C306.648 309.557 307.957 241.894 266.349 229.312Z" fill="#FBC02D"/>
<path d="M276.983 195.145C281.421 201.564 279.952 212.995 275.546 216.125C271.139 219.254 267.659 217.21 267.659 217.21C267.659 217.21 266.35 211.239 268.553 208.461C270.725 205.652 270.118 201.213 267.755 200.446C265.361 199.681 263.573 201.309 263.189 206.515C262.806 211.719 258.016 210.251 257.538 206.099C257.09 201.916 257.282 200.128 253.291 199.936C249.3 199.745 241.635 201.469 235.664 192.719C229.693 183.97 238.889 172.443 238.889 172.443C238.889 172.443 245.978 165.896 254.44 170.558C262.87 175.188 261.338 186.748 263.509 188.185C265.711 189.589 272.512 188.759 276.983 195.145ZM313.577 271.782V319.233H383.093V271.782H313.577Z" fill="#0984E3"/>
</svg>
