  <svg width="543" height="29" viewBox="0 0 543 29" fill="none" xmlns="http://www.w3.org/2000/svg">
              <rect y="9" width="543" height="10" rx="5" fill="#C4C4C4"/>
              <rect y="10" width="198" height="8" rx="4" fill="#22D105"/>
              <rect x="195.17" y="2.17" width="24.66" height="24.66" rx="12.33" fill="white"/>
              <path d="M210.986 14.4835V15.3023L204.492 18.6922V17.2511C204.492 17.1419 204.52 17.0409 204.574 16.9481C204.629 16.8553 204.719 16.7789 204.844 16.7189L207.817 15.1877C208.073 15.0621 208.354 14.9639 208.66 14.8929C208.354 14.8219 208.073 14.7237 207.817 14.5981L204.844 13.0751C204.719 13.0096 204.629 12.9332 204.574 12.8458C204.52 12.753 204.492 12.652 204.492 12.5429V11.1017L210.986 14.4835Z" fill="#22D105"/>
              <rect x="195.17" y="2.17" width="24.66" height="24.66" rx="12.33" stroke="#22D105" stroke-width="4.34"/>
              </svg>