<svg width="934" height="1082" viewBox="0 0 934 1082" fill="none" xmlns="http://www.w3.org/2000/svg">
<path fill-rule="evenodd" clip-rule="evenodd" d="M429.706 22.0636C492.098 57.7415 563.168 100.631 628.222 131.064C691.945 160.873 757.347 156.546 822.276 183.564C895.861 214.184 914.85 394.924 931.073 473.698C948.091 556.334 859.585 623.194 822.276 698.702C795.432 753.03 874.161 878.416 844.222 931.064C814.242 983.785 704.814 1011.7 644.675 1011.02C555.583 1010.01 678.741 994.128 591.222 1011.02C506.234 1027.42 378.005 1045.71 297.591 1078C242.58 1100.09 212.874 996.681 164.785 961.784C116.398 926.669 17.1625 931.151 12.4999 871.11C6.4095 792.681 -16.0569 743.061 24.722 676.064C42.5135 646.833 50.5384 641.607 59.722 608.564C69.355 573.903 78.3272 509.516 74.722 473.698C61.0334 337.701 65.7617 197.131 134.831 79.6202C180.281 2.29385 352.273 -22.2148 429.706 22.0636Z" fill="#FF5C28" fill-opacity="0.05"/>
</svg>
